<mxfile host="app.diagrams.net" modified="2024-03-21T00:38:52.268Z" agent="Mozilla/5.0 (Windows NT 10.0; Win64; x64) AppleWebKit/537.36 (KHTML, like Gecko) Chrome/122.0.0.0 Safari/537.36 Edg/122.0.0.0" etag="RcmgKD5wqLu-nEW1vvsa" version="24.0.7" type="google">
  <diagram name="Página-1" id="iTsl842QuPBKtviG856I">
    <mxGraphModel grid="1" page="1" gridSize="10" guides="1" tooltips="1" connect="1" arrows="1" fold="1" pageScale="1" pageWidth="827" pageHeight="1169" math="0" shadow="0">
      <root>
        <mxCell id="0" />
        <mxCell id="1" parent="0" />
        <mxCell id="K4SMn1scXLa-UdyiP_bj-1" value="Inicio" style="rounded=1;whiteSpace=wrap;html=1;" vertex="1" parent="1">
          <mxGeometry x="310" y="90" width="120" height="60" as="geometry" />
        </mxCell>
        <mxCell id="K4SMn1scXLa-UdyiP_bj-21" style="edgeStyle=orthogonalEdgeStyle;rounded=0;orthogonalLoop=1;jettySize=auto;html=1;" edge="1" parent="1" source="K4SMn1scXLa-UdyiP_bj-2" target="K4SMn1scXLa-UdyiP_bj-4">
          <mxGeometry relative="1" as="geometry" />
        </mxCell>
        <mxCell id="K4SMn1scXLa-UdyiP_bj-2" value="var A, B, total" style="rounded=0;whiteSpace=wrap;html=1;" vertex="1" parent="1">
          <mxGeometry x="320" y="240" width="120" height="60" as="geometry" />
        </mxCell>
        <mxCell id="K4SMn1scXLa-UdyiP_bj-3" style="edgeStyle=orthogonalEdgeStyle;rounded=0;orthogonalLoop=1;jettySize=auto;html=1;exitX=0.5;exitY=1;exitDx=0;exitDy=0;entryX=0.442;entryY=-0.011;entryDx=0;entryDy=0;entryPerimeter=0;" edge="1" parent="1" source="K4SMn1scXLa-UdyiP_bj-1" target="K4SMn1scXLa-UdyiP_bj-2">
          <mxGeometry relative="1" as="geometry" />
        </mxCell>
        <mxCell id="K4SMn1scXLa-UdyiP_bj-4" value="A" style="shape=manualInput;whiteSpace=wrap;html=1;" vertex="1" parent="1">
          <mxGeometry x="280" y="350" width="200" height="80" as="geometry" />
        </mxCell>
        <mxCell id="K4SMn1scXLa-UdyiP_bj-23" style="edgeStyle=orthogonalEdgeStyle;rounded=0;orthogonalLoop=1;jettySize=auto;html=1;entryX=0.5;entryY=0;entryDx=0;entryDy=0;" edge="1" parent="1" source="K4SMn1scXLa-UdyiP_bj-5" target="K4SMn1scXLa-UdyiP_bj-6">
          <mxGeometry relative="1" as="geometry" />
        </mxCell>
        <mxCell id="K4SMn1scXLa-UdyiP_bj-5" value="B" style="shape=manualInput;whiteSpace=wrap;html=1;" vertex="1" parent="1">
          <mxGeometry x="283.5" y="500" width="200" height="80" as="geometry" />
        </mxCell>
        <mxCell id="K4SMn1scXLa-UdyiP_bj-6" value="B é igual a zero ?" style="rhombus;whiteSpace=wrap;html=1;" vertex="1" parent="1">
          <mxGeometry x="310" y="670" width="140" height="100" as="geometry" />
        </mxCell>
        <mxCell id="K4SMn1scXLa-UdyiP_bj-9" value="Fim" style="rounded=1;whiteSpace=wrap;html=1;" vertex="1" parent="1">
          <mxGeometry x="320" y="990" width="120" height="60" as="geometry" />
        </mxCell>
        <mxCell id="K4SMn1scXLa-UdyiP_bj-25" style="edgeStyle=orthogonalEdgeStyle;rounded=0;orthogonalLoop=1;jettySize=auto;html=1;entryX=0.5;entryY=0;entryDx=0;entryDy=0;" edge="1" parent="1" source="K4SMn1scXLa-UdyiP_bj-17" target="K4SMn1scXLa-UdyiP_bj-9">
          <mxGeometry relative="1" as="geometry" />
        </mxCell>
        <mxCell id="K4SMn1scXLa-UdyiP_bj-17" value="total = A / B" style="shape=display;whiteSpace=wrap;html=1;" vertex="1" parent="1">
          <mxGeometry x="286.5" y="860" width="187" height="60" as="geometry" />
        </mxCell>
        <mxCell id="K4SMn1scXLa-UdyiP_bj-22" style="edgeStyle=orthogonalEdgeStyle;rounded=0;orthogonalLoop=1;jettySize=auto;html=1;entryX=0.488;entryY=0.167;entryDx=0;entryDy=0;entryPerimeter=0;" edge="1" parent="1" source="K4SMn1scXLa-UdyiP_bj-4" target="K4SMn1scXLa-UdyiP_bj-5">
          <mxGeometry relative="1" as="geometry" />
        </mxCell>
        <mxCell id="K4SMn1scXLa-UdyiP_bj-24" style="edgeStyle=orthogonalEdgeStyle;rounded=0;orthogonalLoop=1;jettySize=auto;html=1;entryX=0;entryY=0;entryDx=101.875;entryDy=0;entryPerimeter=0;" edge="1" parent="1" source="K4SMn1scXLa-UdyiP_bj-6" target="K4SMn1scXLa-UdyiP_bj-17">
          <mxGeometry relative="1" as="geometry" />
        </mxCell>
        <mxCell id="K4SMn1scXLa-UdyiP_bj-26" value="Não" style="text;html=1;align=center;verticalAlign=middle;whiteSpace=wrap;rounded=0;" vertex="1" parent="1">
          <mxGeometry x="370" y="780" width="60" height="30" as="geometry" />
        </mxCell>
        <mxCell id="K4SMn1scXLa-UdyiP_bj-27" value="" style="endArrow=none;html=1;rounded=0;entryX=0;entryY=0.5;entryDx=0;entryDy=0;" edge="1" parent="1" target="K4SMn1scXLa-UdyiP_bj-6">
          <mxGeometry width="50" height="50" relative="1" as="geometry">
            <mxPoint x="210" y="720" as="sourcePoint" />
            <mxPoint x="270" y="730" as="targetPoint" />
          </mxGeometry>
        </mxCell>
        <mxCell id="K4SMn1scXLa-UdyiP_bj-28" value="" style="endArrow=none;html=1;rounded=0;" edge="1" parent="1">
          <mxGeometry width="50" height="50" relative="1" as="geometry">
            <mxPoint x="210" y="1030" as="sourcePoint" />
            <mxPoint x="210" y="720" as="targetPoint" />
          </mxGeometry>
        </mxCell>
        <mxCell id="K4SMn1scXLa-UdyiP_bj-29" value="" style="endArrow=classic;html=1;rounded=0;entryX=-0.031;entryY=0.633;entryDx=0;entryDy=0;entryPerimeter=0;" edge="1" parent="1" target="K4SMn1scXLa-UdyiP_bj-9">
          <mxGeometry width="50" height="50" relative="1" as="geometry">
            <mxPoint x="210" y="1030" as="sourcePoint" />
            <mxPoint x="170" y="980" as="targetPoint" />
          </mxGeometry>
        </mxCell>
        <mxCell id="K4SMn1scXLa-UdyiP_bj-30" value="Sim" style="text;html=1;align=center;verticalAlign=middle;whiteSpace=wrap;rounded=0;" vertex="1" parent="1">
          <mxGeometry x="260" y="690" width="60" height="30" as="geometry" />
        </mxCell>
        <mxCell id="K4SMn1scXLa-UdyiP_bj-31" value="B é Igual a 0 então finaliza o programa." style="text;html=1;align=center;verticalAlign=middle;whiteSpace=wrap;rounded=0;" vertex="1" parent="1">
          <mxGeometry x="120" y="850" width="90" height="40" as="geometry" />
        </mxCell>
      </root>
    </mxGraphModel>
  </diagram>
</mxfile>
